HIERARCHY
ROOT Hips
{
	OFFSET 0.000000 0.000000 0.000000 
	CHANNELS 6 Xposition Yposition Zposition Yrotation Zrotation Xrotation 
	JOINT Lumbar
	{
		OFFSET 0.000000 0.000000 0.000000 
		CHANNELS 3 Zrotation Xrotation Yrotation
		JOINT Neck
		{
			OFFSET 0.000000 0.445665 0.000000 
			CHANNELS 3 Zrotation Xrotation Yrotation
			End Site
			{
				OFFSET 0.000000 0.227535 0.000000 
			}
		}
		JOINT RightShoulder
		{
			OFFSET 0.019635 0.377685 0.194865 
			CHANNELS 3 Zrotation Xrotation Yrotation
			JOINT RightElbow
			{
				OFFSET 0.000000 -0.243375 0.000000 
				CHANNELS 2 Zrotation Yrotation
				JOINT RightWrist
				{
					OFFSET 0.000000 -0.264825 0.000000 
					CHANNELS 2 Zrotation Xrotation
					End Site
					{
						OFFSET 0.006600 -0.176220 0.000990 
					}
				}
			}
		}
		JOINT LeftShoulder
		{
			OFFSET 0.019635 0.377685 -0.194865 
			CHANNELS 3 Zrotation Xrotation Yrotation
			JOINT LeftElbow
			{
				OFFSET 0.000000 -0.243375 0.000000 
				CHANNELS 2 Zrotation Yrotation
				JOINT LeftWrist
				{
					OFFSET 0.000000 -0.264825 0.000000 
					CHANNELS 2 Zrotation Xrotation
					End Site
					{
						OFFSET 0.006600 -0.176220 -0.000990 
					}
				}
			}
		}
	}
	JOINT RightHip
	{
		OFFSET 0.052140 -0.069960 0.075570 
		CHANNELS 3 Zrotation Xrotation Yrotation
		JOINT RightKnee
		{
			OFFSET 0.000000 -0.402270 0.000000 
			CHANNELS 1 Zrotation
			JOINT RightAnkle
			{
				OFFSET 0.000000 -0.404085 0.000000 
				CHANNELS 3 Zrotation Xrotation Yrotation
				End Site
				{
					OFFSET 0.204105 -0.089430 0.008415 
				}
			}
		}
	}
	JOINT LeftHip
	{
		OFFSET 0.052140 -0.069960 -0.075570 
		CHANNELS 3 Zrotation Xrotation Yrotation
		JOINT LeftKnee
		{
			OFFSET 0.000000 -0.402270 0.000000 
			CHANNELS 1 Zrotation
			JOINT LeftAnkle
			{
				OFFSET 0.000000 -0.404085 0.000000 
				CHANNELS 3 Zrotation Xrotation Yrotation
				End Site
				{
					OFFSET 0.204105 -0.089430 -0.008415 
				}
			}
		}
	}
}
MOTION
Frames: 22
Frame Time: 0.02
-2.53532 0.4457 -0.36933 901.14327 0 11.73564 -45.61032 10.50968 -8.39657 14.04876 -1.50849 -9.66933 46.81186 -26.24107 27.50098 92.74622 77.00504 -3.47754 1.74814 31.22694 12.66128 -34.64912 64.60124 -99.4816 -55.37387 4.61985 24.78418 -7.36798 -35.02608 -133.99593 17.39746 -18.35648 -15.22188 77.74928 30.19739 36.26703 -114.89557 12.35363 -4.58551 -10.36255
-2.53509 0.44543 -0.36866 900.91671 0 11.7927 -45.67756 10.46472 -8.26389 14.04067 -1.26687 -9.48028 48.19684 -24.76609 28.0332 94.84777 76.75388 -7.23882 1.19911 31.20656 12.30556 -34.19942 65.09981 -99.77705 -55.71725 4.64806 24.88144 -7.37881 -34.74581 -134.01119 17.1876 -17.8855 -15.10167 77.64832 30.2105 36.42669 -114.91505 12.44006 -4.65438 -10.32494
-2.53413 0.44488 -0.36774 900.76161 0 11.84056 -45.90028 10.53111 -8.13973 14.13745 -0.96361 -9.22408 49.6606 -23.22054 27.98912 96.37683 76.81015 -12.41221 0.22225 31.23533 11.89223 -33.65665 65.86438 -100.1106 -56.14286 4.6801 25.04766 -7.43063 -34.55364 -134.05271 16.92227 -17.28761 -14.95508 77.53855 30.21843 36.72277 -114.88394 12.48291 -4.70083 -10.28185
-2.53346 0.44445 -0.36694 900.57575 0 11.89094 -46.06148 10.55188 -7.99643 14.18838 -0.69467 -9.01111 51.05104 -21.72937 28.15592 98.11928 76.74435 -16.81613 -0.53134 31.24562 11.51273 -33.16308 66.50953 -100.42022 -56.52845 4.70968 25.18634 -7.4624 -34.32514 -134.08999 16.69012 -16.76522 -14.82536 77.43908 30.22915 36.95315 -114.87522 12.54537 -4.75713 -10.24045
-2.53293 0.44408 -0.36612 900.37937 0 11.94838 -46.18712 10.54988 -7.90912 14.22992 -0.39708 -8.74531 52.61967 -20.13541 28.54827 100.06224 76.65414 -21.78728 -1.40838 31.24772 11.09344 -32.63849 67.14826 -100.76075 -56.92866 4.74256 25.31083 -7.49944 -34.07773 -134.09755 16.4248 -16.16864 -14.67506 77.31346 30.23832 37.20003 -114.86932 12.60949 -4.81563 -10.20162
-2.53196 0.4435 -0.36528 900.22368 0 11.99003 -46.42244 10.62242 -7.71376 14.31657 -0.14576 -8.57157 53.82494 -18.7465 28.3325 101.4467 76.6755 -25.90127 -2.13087 31.27501 10.74766 -32.15806 67.86348 -101.04429 -57.31564 4.76933 25.48067 -7.53673 -33.89176 -134.17214 16.21483 -15.69524 -14.56127 77.23919 30.24906 37.44539 -114.84508 12.65922 -4.86369 -10.15697
-2.52993 0.44241 -0.36449 900.15606 0 11.97619 -46.92473 10.87354 -7.17634 14.50264 -0.03141 -8.68985 54.04852 -17.88787 26.54873 101.47325 76.84651 -27.30789 -2.30197 31.36536 10.60081 -31.81125 68.72555 -101.16754 -57.65835 4.77872 25.75706 -7.54925 -33.85542 -134.42595 16.17618 -15.60369 -14.55585 77.31983 30.26929 37.64265 -114.78687 12.68329 -4.89159 -10.09112
-2.52748 0.44112 -0.3637 900.12841 0 11.94903 -47.53127 11.1959 -6.53773 14.73061 0.03305 -8.8995 53.89402 -17.24923 24.17722 100.94852 77.12816 -27.79966 -2.30611 31.47738 10.53385 -31.51449 69.65464 -101.23072 -57.98227 4.78171 26.0765 -7.56307 -33.87811 -134.74563 16.19443 -15.63888 -14.58793 77.45069 30.29063 37.83482 -114.71124 12.69381 -4.90918 -10.02077
-2.52523 0.43993 -0.36291 900.08756 0 11.93729 -48.08823 11.48613 -5.97416 14.93934 0.11614 -9.05314 53.8832 -16.54432 22.09165 100.64854 77.40326 -28.70122 -2.39908 31.57456 10.44343 -31.20193 70.55348 -101.3167 -58.30638 4.78728 26.37746 -7.5867 -33.8732 -135.03468 16.18316 -15.60856 -14.60211 77.55116 30.30884 38.03666 -114.64066 12.70808 -4.92921 -9.95686
-2.52291 0.43867 -0.36211 900.02894 0 11.88648 -48.65984 11.77995 -5.29061 15.15269 0.21804 -9.26457 53.99332 -15.6915 19.90398 100.44116 77.49853 -29.67197 -2.4518 31.69406 10.29788 -30.85592 71.46352 -101.42248 -58.6687 4.79433 26.6774 -7.56912 -33.87439 -135.32845 16.1846 -15.60561 -14.61886 77.6824 30.33767 38.21451 -114.5801 12.73046 -4.95758 -9.8745
-2.52066 0.43753 -0.36133 900.01496 0 11.91305 -49.22382 12.08081 -4.82974 15.36482 0.26864 -9.37945 53.76183 -15.20376 17.80022 99.91275 77.99918 -30.2701 -2.54381 31.77233 10.28539 -30.59376 72.35914 -101.47297 -58.94585 4.7968 26.98739 -7.63558 -33.87599 -135.62665 16.17479 -15.57943 -14.63966 77.7627 30.34504 38.43647 -114.49559 12.734 -4.96691 -9.8292
-2.51869 0.43675 -0.36056 900.12275 0 12.16466 -49.7383 12.39134 -5.03583 15.5644 0.1849 -9.19517 52.66847 -15.63851 16.04533 98.67543 79.51186 -29.99179 -2.77678 31.72403 10.63451 -30.54219 73.22748 -101.37889 -58.99205 4.78764 27.326 -7.94731 -33.86221 -135.92975 16.11201 -15.44159 -14.66148 77.68025 30.2902 38.80617 -114.34589 12.68292 -4.92201 -9.89063
-2.5168 0.43609 -0.35982 900.27243 0 12.49316 -50.24083 12.70453 -5.46468 15.76047 0.05186 -8.91289 51.24643 -16.43941 14.40295 97.1291 81.44062 -29.37559 -3.0543 31.63453 11.11256 -30.57533 74.07209 -101.23231 -58.95269 4.77419 27.67077 -8.34098 -33.84686 -136.23339 16.03785 -15.28 -14.68655 77.5464 30.21422 39.21568 -114.17352 12.61462 -4.85918 -9.98892
-2.51488 0.4354 -0.35909 900.39684 0 12.78111 -50.75046 13.01091 -5.77326 15.95708 -0.05572 -8.68239 49.9811 -17.09387 12.72946 95.69895 83.2315 -28.95443 -3.31492 31.56856 11.52285 -30.57593 74.90748 -101.11383 -58.95247 4.76307 28.00489 -8.68784 -33.83302 -136.53068 15.97425 -15.14035 -14.71073 77.44293 30.14977 39.58941 -114.01403 12.55835 -4.80746 -10.06822
-2.5129 0.43463 -0.35826 900.54803 0 13.09205 -51.25846 13.3434 -6.15752 16.16017 -0.1779 -8.42412 48.66979 -17.67155 10.95075 94.351 84.81572 -28.32958 -3.55645 31.48334 11.97449 -30.5533 75.83054 -100.9752 -58.9511 4.75012 28.37366 -9.07454 -33.81754 -136.85547 15.88928 -14.9568 -14.73313 77.31275 30.07738 40.03552 -113.84322 12.48405 -4.74298 -10.15684
-2.51109 0.43404 -0.35766 900.6541 0 13.37382 -51.76356 13.62133 -6.43982 16.34776 -0.28072 -8.19965 47.38345 -18.49341 9.42542 92.76645 86.92085 -28.0574 -3.84971 31.42785 12.36972 -30.59826 76.56355 -100.86709 -58.93137 4.74006 28.67119 -9.39849 -33.80483 -137.12299 15.84606 -14.85892 -14.76025 77.22386 30.01631 40.34314 -113.6906 12.44312 -4.70083 -10.23482
-2.50964 0.43392 -0.35768 900.61407 0 13.55396 -52.28026 13.74588 -6.37409 16.49819 -0.31807 -8.08865 46.22827 -19.89753 8.57889 90.60087 90.42044 -28.8708 -4.2815 31.46691 12.57612 -30.81143 76.78387 -100.85418 -58.88763 4.73896 28.76952 -9.52232 -33.7951 -137.22497 15.91452 -14.98923 -14.79301 77.27413 29.99332 40.23436 -113.59605 12.5008 -4.72569 -10.27484
-2.50837 0.43397 -0.35793 900.52891 0 13.70258 -52.79055 13.81515 -6.2008 16.63197 -0.33399 -8.01532 45.11509 -21.53377 7.98572 88.21126 94.4182 -30.04983 -4.76338 31.53676 12.72102 -31.08906 76.81179 -100.87445 -58.8275 4.74098 28.79576 -9.58138 -33.78866 -137.26997 16.026 -15.20801 -14.83127 77.36513 29.98213 39.98912 -113.52029 12.59223 -4.77347 -10.30283
-2.50705 0.43394 -0.35808 900.47182 0 13.86715 -53.29258 13.91112 -6.08511 16.77011 -0.35943 -7.92681 43.99617 -23.06461 7.27463 85.92923 98.14967 -31.04684 -5.21879 31.59084 12.89492 -31.3354 76.92386 -100.88107 -58.77104 4.74164 28.85556 -9.67467 -33.78392 -137.34592 16.12202 -15.39574 -14.87142 77.42899 29.96444 39.82262 -113.43448 12.66689 -4.81025 -10.33606
-2.50561 0.43391 -0.35821 900.38503 0 14.02751 -53.84243 14.00183 -5.94032 16.92197 -0.38749 -7.82673 42.80816 -24.6093 6.57692 83.61179 102.0653 -32.09836 -5.69126 31.65102 13.0697 -31.59303 77.05082 -100.87978 -58.72707 4.74187 28.91274 -9.7509 -33.76641 -137.40204 16.20155 -15.54656 -14.89398 77.52754 29.95081 39.58798 -113.3541 12.74727 -4.84909 -10.3715
-2.50446 0.43392 -0.35844 900.34788 0 14.1882 -54.29007 14.08876 -5.82772 17.04102 -0.40441 -7.76098 41.77963 -26.17381 5.91248 81.3189 105.70878 -33.12777 -6.1396 31.70632 13.2254 -31.84151 77.09911 -100.90357 -58.65491 4.74383 28.95754 -9.84579 -33.77536 -137.48412 16.32435 -15.79245 -14.95341 77.56413 29.93182 39.461 -113.26736 12.82363 -4.88903 -10.39903
-2.50404 0.43395 -0.35885 900.46703 0 14.35631 -54.46652 14.19207 -5.8294 17.07588 -0.3954 -7.78121 41.17224 -27.74701 5.25934 79.15312 108.4853 -34.0074 -6.50781 31.74078 13.35078 -32.04724 76.9956 -100.98835 -58.5039 4.74951 28.99055 -10.01094 -33.86493 -137.66662 16.56844 -16.30605 -15.12211 77.42022 29.89523 39.67579 -113.15726 12.8835 -4.92873 -10.40722
